<svg xmlns="http://www.w3.org/2000/svg" fill="none" viewBox="0 0 32 32"><g filter="url(#a)"><path fill="url(#b)" d="M23.5 5.63a13.97 13.97 0 0 1-11 17.04c-2.9.53-5.67.13-8.08-.92-.56-.25-1.09.4-.8.93a13.99 13.99 0 1 0 20.91-17.7c-.47-.37-1.16.07-1.02.65"/><path fill="url(#c)" d="M23.5 5.63a13.97 13.97 0 0 1-11 17.04c-2.9.53-5.67.13-8.08-.92-.56-.25-1.09.4-.8.93a13.99 13.99 0 1 0 20.91-17.7c-.47-.37-1.16.07-1.02.65"/><path fill="url(#d)" d="M23.5 5.63a13.97 13.97 0 0 1-11 17.04c-2.9.53-5.67.13-8.08-.92-.56-.25-1.09.4-.8.93a13.99 13.99 0 1 0 20.91-17.7c-.47-.37-1.16.07-1.02.65"/></g><path fill="url(#e)" d="M23.5 5.63a13.97 13.97 0 0 1-11 17.04c-2.9.53-5.67.13-8.08-.92-.56-.25-1.09.4-.8.93a13.99 13.99 0 1 0 20.91-17.7c-.47-.37-1.16.07-1.02.65"/><g filter="url(#f)"><path stroke="url(#g)" stroke-width=".3" d="M13.48 27.01a1.57 1.57 0 1 0 0-3.14 1.57 1.57 0 0 0 0 3.14Z"/></g><g filter="url(#h)"><path fill="url(#i)" d="M13.48 27.01a1.57 1.57 0 1 0 0-3.14 1.57 1.57 0 0 0 0 3.14"/></g><g filter="url(#j)"><path stroke="url(#k)" stroke-width=".2" d="M26.4 14.13a1.57 1.57 0 1 0 0-3.14 1.57 1.57 0 0 0 0 3.14Z"/></g><g filter="url(#l)"><path fill="url(#m)" d="M26.4 14.13a1.57 1.57 0 1 0 0-3.14 1.57 1.57 0 0 0 0 3.14"/></g><g filter="url(#n)"><path stroke="url(#o)" stroke-width=".2" d="M26.9 18.97a.99.99 0 1 0 0-1.98.99.99 0 0 0 0 1.98Z"/></g><g filter="url(#p)"><path fill="url(#q)" d="M26.9 18.97a.99.99 0 1 0 0-1.98.99.99 0 0 0 0 1.98"/></g><g filter="url(#r)"><path stroke="url(#s)" stroke-width=".3" d="M21.9 24.98a3 3 0 1 0 0-6 3 3 0 0 0 0 6Z"/></g><g filter="url(#t)"><path fill="url(#u)" d="M21.9 24.98a3 3 0 1 0 0-6 3 3 0 0 0 0 6"/></g><defs><filter id="a" width="26.87" height="25.66" x="3.54" y="4.34" color-interpolation-filters="sRGB" filterUnits="userSpaceOnUse"><feFlood flood-opacity="0" result="BackgroundImageFix"/><feBlend in="SourceGraphic" in2="BackgroundImageFix" result="shape"/><feColorMatrix in="SourceAlpha" result="hardAlpha" values="0 0 0 0 0 0 0 0 0 0 0 0 0 0 0 0 0 0 127 0"/><feOffset dx=".5" dy="-.5"/><feGaussianBlur stdDeviation=".5"/><feComposite in2="hardAlpha" k2="-1" k3="1" operator="arithmetic"/><feColorMatrix values="0 0 0 0 0.721569 0 0 0 0 0.372549 0 0 0 0 0.356863 0 0 0 1 0"/><feBlend in2="shape" result="effect1_innerShadow_18_14563"/></filter><filter id="f" width="4.04" height="4.04" x="11.46" y="23.42" color-interpolation-filters="sRGB" filterUnits="userSpaceOnUse"><feFlood flood-opacity="0" result="BackgroundImageFix"/><feBlend in="SourceGraphic" in2="BackgroundImageFix" result="shape"/><feGaussianBlur result="effect1_foregroundBlur_18_14563" stdDeviation=".15"/></filter><filter id="h" width="3.69" height="3.79" x="11.66" y="23.47" color-interpolation-filters="sRGB" filterUnits="userSpaceOnUse"><feFlood flood-opacity="0" result="BackgroundImageFix"/><feBlend in="SourceGraphic" in2="BackgroundImageFix" result="shape"/><feColorMatrix in="SourceAlpha" result="hardAlpha" values="0 0 0 0 0 0 0 0 0 0 0 0 0 0 0 0 0 0 127 0"/><feOffset dx="-.25" dy=".25"/><feGaussianBlur stdDeviation=".38"/><feComposite in2="hardAlpha" k2="-1" k3="1" operator="arithmetic"/><feColorMatrix values="0 0 0 0 0.780392 0 0 0 0 0.462745 0 0 0 0 0.254902 0 0 0 1 0"/><feBlend in2="shape" result="effect1_innerShadow_18_14563"/><feColorMatrix in="SourceAlpha" result="hardAlpha" values="0 0 0 0 0 0 0 0 0 0 0 0 0 0 0 0 0 0 127 0"/><feOffset dx=".3" dy="-.4"/><feGaussianBlur stdDeviation=".5"/><feComposite in2="hardAlpha" k2="-1" k3="1" operator="arithmetic"/><feColorMatrix values="0 0 0 0 1 0 0 0 0 0.839216 0 0 0 0 0.513726 0 0 0 1 0"/><feBlend in2="effect1_innerShadow_18_14563" result="effect2_innerShadow_18_14563"/></filter><filter id="j" width="3.74" height="3.74" x="24.53" y="10.69" color-interpolation-filters="sRGB" filterUnits="userSpaceOnUse"><feFlood flood-opacity="0" result="BackgroundImageFix"/><feBlend in="SourceGraphic" in2="BackgroundImageFix" result="shape"/><feGaussianBlur result="effect1_foregroundBlur_18_14563" stdDeviation=".1"/></filter><filter id="l" width="3.69" height="3.69" x="24.58" y="10.69" color-interpolation-filters="sRGB" filterUnits="userSpaceOnUse"><feFlood flood-opacity="0" result="BackgroundImageFix"/><feBlend in="SourceGraphic" in2="BackgroundImageFix" result="shape"/><feColorMatrix in="SourceAlpha" result="hardAlpha" values="0 0 0 0 0 0 0 0 0 0 0 0 0 0 0 0 0 0 127 0"/><feOffset dx="-.25" dy=".25"/><feGaussianBlur stdDeviation=".2"/><feComposite in2="hardAlpha" k2="-1" k3="1" operator="arithmetic"/><feColorMatrix values="0 0 0 0 0.847059 0 0 0 0 0.552941 0 0 0 0 0.235294 0 0 0 1 0"/><feBlend in2="shape" result="effect1_innerShadow_18_14563"/><feColorMatrix in="SourceAlpha" result="hardAlpha" values="0 0 0 0 0 0 0 0 0 0 0 0 0 0 0 0 0 0 127 0"/><feOffset dx=".3" dy="-.3"/><feGaussianBlur stdDeviation=".15"/><feComposite in2="hardAlpha" k2="-1" k3="1" operator="arithmetic"/><feColorMatrix values="0 0 0 0 1 0 0 0 0 0.921569 0 0 0 0 0.682353 0 0 0 1 0"/><feBlend in2="effect1_innerShadow_18_14563" result="effect2_innerShadow_18_14563"/></filter><filter id="n" width="2.58" height="2.58" x="25.61" y="16.69" color-interpolation-filters="sRGB" filterUnits="userSpaceOnUse"><feFlood flood-opacity="0" result="BackgroundImageFix"/><feBlend in="SourceGraphic" in2="BackgroundImageFix" result="shape"/><feGaussianBlur result="effect1_foregroundBlur_18_14563" stdDeviation=".1"/></filter><filter id="p" width="2.33" height="2.33" x="25.76" y="16.79" color-interpolation-filters="sRGB" filterUnits="userSpaceOnUse"><feFlood flood-opacity="0" result="BackgroundImageFix"/><feBlend in="SourceGraphic" in2="BackgroundImageFix" result="shape"/><feColorMatrix in="SourceAlpha" result="hardAlpha" values="0 0 0 0 0 0 0 0 0 0 0 0 0 0 0 0 0 0 127 0"/><feOffset dx="-.15" dy=".15"/><feGaussianBlur stdDeviation=".1"/><feComposite in2="hardAlpha" k2="-1" k3="1" operator="arithmetic"/><feColorMatrix values="0 0 0 0 0.847059 0 0 0 0 0.552941 0 0 0 0 0.235294 0 0 0 1 0"/><feBlend in2="shape" result="effect1_innerShadow_18_14563"/><feColorMatrix in="SourceAlpha" result="hardAlpha" values="0 0 0 0 0 0 0 0 0 0 0 0 0 0 0 0 0 0 127 0"/><feOffset dx=".2" dy="-.2"/><feGaussianBlur stdDeviation=".1"/><feComposite in2="hardAlpha" k2="-1" k3="1" operator="arithmetic"/><feColorMatrix values="0 0 0 0 1 0 0 0 0 0.921569 0 0 0 0 0.682353 0 0 0 1 0"/><feBlend in2="effect1_innerShadow_18_14563" result="effect2_innerShadow_18_14563"/></filter><filter id="r" width="6.9" height="6.9" x="18.45" y="18.53" color-interpolation-filters="sRGB" filterUnits="userSpaceOnUse"><feFlood flood-opacity="0" result="BackgroundImageFix"/><feBlend in="SourceGraphic" in2="BackgroundImageFix" result="shape"/><feGaussianBlur result="effect1_foregroundBlur_18_14563" stdDeviation=".15"/></filter><filter id="t" width="6.55" height="6.65" x="18.65" y="18.58" color-interpolation-filters="sRGB" filterUnits="userSpaceOnUse"><feFlood flood-opacity="0" result="BackgroundImageFix"/><feBlend in="SourceGraphic" in2="BackgroundImageFix" result="shape"/><feColorMatrix in="SourceAlpha" result="hardAlpha" values="0 0 0 0 0 0 0 0 0 0 0 0 0 0 0 0 0 0 127 0"/><feOffset dx="-.25" dy=".25"/><feGaussianBlur stdDeviation=".38"/><feComposite in2="hardAlpha" k2="-1" k3="1" operator="arithmetic"/><feColorMatrix values="0 0 0 0 0.8 0 0 0 0 0.537255 0 0 0 0 0.270588 0 0 0 1 0"/><feBlend in2="shape" result="effect1_innerShadow_18_14563"/><feColorMatrix in="SourceAlpha" result="hardAlpha" values="0 0 0 0 0 0 0 0 0 0 0 0 0 0 0 0 0 0 127 0"/><feOffset dx=".3" dy="-.4"/><feGaussianBlur stdDeviation=".5"/><feComposite in2="hardAlpha" k2="-1" k3="1" operator="arithmetic"/><feColorMatrix values="0 0 0 0 1 0 0 0 0 0.882353 0 0 0 0 0.611765 0 0 0 1 0"/><feBlend in2="effect1_innerShadow_18_14563" result="effect2_innerShadow_18_14563"/></filter><radialGradient id="c" cx="0" cy="0" r="1" gradientTransform="rotate(-23.4 47.47 -27.14)scale(15.7323 16.4902)" gradientUnits="userSpaceOnUse"><stop offset=".77" stop-color="#ffecae" stop-opacity="0"/><stop offset=".98" stop-color="#ffecae"/></radialGradient><radialGradient id="d" cx="0" cy="0" r="1" gradientTransform="rotate(-39.85 47.41 3.6)scale(14.0127 14.6878)" gradientUnits="userSpaceOnUse"><stop stop-color="#ff984f"/><stop offset="1" stop-color="#ff984f" stop-opacity="0"/></radialGradient><radialGradient id="e" cx="0" cy="0" r="1" gradientTransform="rotate(13.63 -37.1 98.54)scale(2.62816 6.65588)" gradientUnits="userSpaceOnUse"><stop offset=".23" stop-color="#ba935b"/><stop offset=".98" stop-color="#ba935b" stop-opacity="0"/></radialGradient><radialGradient id="i" cx="0" cy="0" r="1" gradientTransform="rotate(-22.98 69.7 -18.65)scale(2.4298)" gradientUnits="userSpaceOnUse"><stop stop-color="#ffba6a"/><stop offset="1" stop-color="#eb9e58"/></radialGradient><radialGradient id="m" cx="0" cy="0" r="1" gradientTransform="rotate(-15.52 60 -87.98)scale(2.32168)" gradientUnits="userSpaceOnUse"><stop stop-color="#ffd778"/><stop offset="1" stop-color="#ffc767"/></radialGradient><radialGradient id="q" cx="0" cy="0" r="1" gradientTransform="rotate(-15.52 79.88 -88.06)scale(1.46399)" gradientUnits="userSpaceOnUse"><stop stop-color="#ffde8f"/><stop offset="1" stop-color="#ffc25b"/></radialGradient><radialGradient id="u" cx="0" cy="0" r="1" gradientTransform="rotate(-22.98 65.74 -39.47)scale(4.64293)" gradientUnits="userSpaceOnUse"><stop stop-color="#ffc75f"/><stop offset="1" stop-color="#fabc5a"/></radialGradient><linearGradient id="b" x1="28.69" x2="10.75" y1="11.19" y2="29.31" gradientUnits="userSpaceOnUse"><stop stop-color="#ffd874"/><stop offset="1" stop-color="#ffbc4c"/></linearGradient><linearGradient id="g" x1="14.86" x2="13.07" y1="24.65" y2="25.58" gradientUnits="userSpaceOnUse"><stop stop-color="#d0883b"/><stop offset="1" stop-color="#ffca6d"/></linearGradient><linearGradient id="k" x1="27.75" x2="25.3" y1="11.23" y2="13.85" gradientUnits="userSpaceOnUse"><stop stop-color="#e7ac47"/><stop offset="1" stop-color="#ffe9a7"/></linearGradient><linearGradient id="o" x1="27.75" x2="26.2" y1="17.14" y2="18.8" gradientUnits="userSpaceOnUse"><stop stop-color="#e7ac47"/><stop offset="1" stop-color="#ffe9a7"/></linearGradient><linearGradient id="s" x1="24.53" x2="21.12" y1="20.47" y2="22.25" gradientUnits="userSpaceOnUse"><stop stop-color="#e2a842"/><stop offset="1" stop-color="#ffd778"/></linearGradient></defs></svg>