<svg xmlns="http://www.w3.org/2000/svg" fill="none" viewBox="0 0 32 32"><path fill="#008461" d="M26 8h-1v9h1z"/><g filter="url(#a)"><path fill="url(#b)" d="M25.56 15A2.43 2.43 0 0 1 28 17.44v5.82A2.74 2.74 0 0 1 25.25 26H4a2 2 0 0 1-2-2v-5.97C2 16.5 3.5 15 5 15z"/><path fill="url(#c)" d="M25.56 15A2.43 2.43 0 0 1 28 17.44v5.82A2.74 2.74 0 0 1 25.25 26H4a2 2 0 0 1-2-2v-5.97C2 16.5 3.5 15 5 15z"/><path fill="url(#d)" d="M25.56 15A2.43 2.43 0 0 1 28 17.44v5.82A2.74 2.74 0 0 1 25.25 26H4a2 2 0 0 1-2-2v-5.97C2 16.5 3.5 15 5 15z"/><path fill="url(#e)" d="M25.56 15A2.43 2.43 0 0 1 28 17.44v5.82A2.74 2.74 0 0 1 25.25 26H4a2 2 0 0 1-2-2v-5.97C2 16.5 3.5 15 5 15z"/><path fill="url(#f)" d="M25.56 15A2.43 2.43 0 0 1 28 17.44v5.82A2.74 2.74 0 0 1 25.25 26H4a2 2 0 0 1-2-2v-5.97C2 16.5 3.5 15 5 15z"/></g><path fill="url(#g)" fill-rule="evenodd" d="M28 19H2v-.97C2 16.5 3.5 15 5 15h20.56A2.43 2.43 0 0 1 28 17.44z" clip-rule="evenodd"/><g filter="url(#h)"><path fill="#153b3b" fill-rule="evenodd" d="M5.25 20.89c0-.28.22-.5.5-.5h2.29a4.5 4.5 0 0 1 4.5 4.5.5.5 0 0 1-.5.5c-.66 0-1.02-.23-1.02-.5 0-1.94-1.57-3.31-3.5-3.31h-1.5c-.64 0-.77-.42-.77-.7" clip-rule="evenodd"/></g><g filter="url(#i)"><path fill="url(#j)" d="M24.5 29.01a5.5 5.5 0 1 0 0-11 5.5 5.5 0 0 0 0 11"/><path fill="url(#k)" d="M24.5 29.01a5.5 5.5 0 1 0 0-11 5.5 5.5 0 0 0 0 11"/><path fill="url(#l)" d="M24.5 29.01a5.5 5.5 0 1 0 0-11 5.5 5.5 0 0 0 0 11"/></g><g filter="url(#m)"><path fill="#c8bbd6" d="M24.5 25.53a2.02 2.02 0 1 0 0-4.04 2.02 2.02 0 0 0 0 4.04"/></g><g filter="url(#n)"><path fill="#153b3b" d="M27.66 16.47h-3.2c-3.87 0-8.09 3.52-8.09 7.39 0 .28.45.1.72.1a.5.5 0 0 0 .5-.5c0-3.3 3.3-6.48 6.87-5.91l3.2.45z"/></g><g filter="url(#o)"><path fill="#268e6b" fill-rule="evenodd" d="M5.52 20.51c0-.28.22-.5.5-.5h2.49a4.5 4.5 0 0 1 4.5 4.5.5.5 0 1 1-1 0 3.5 3.5 0 0 0-3.5-3.5H6.02a.5.5 0 0 1-.5-.5" clip-rule="evenodd"/></g><path fill="url(#p)" fill-rule="evenodd" d="M5.52 20.51c0-.28.22-.5.5-.5h2.49a4.5 4.5 0 0 1 4.5 4.5.5.5 0 1 1-1 0 3.5 3.5 0 0 0-3.5-3.5H6.02a.5.5 0 0 1-.5-.5" clip-rule="evenodd"/><g filter="url(#q)"><path fill="#268e6b" fill-rule="evenodd" d="M23.99 17A6 6 0 0 0 18 23a.5.5 0 0 1-1 0 7 7 0 0 1 6.99-7h5.52a.5.5 0 0 1 0 1z" clip-rule="evenodd"/></g><path fill="url(#r)" fill-rule="evenodd" d="M23.99 17A6 6 0 0 0 18 23a.5.5 0 0 1-1 0 7 7 0 0 1 6.99-7h5.52a.5.5 0 0 1 0 1z" clip-rule="evenodd"/><g filter="url(#s)"><path fill="url(#t)" d="M7.52 29.01a3.5 3.5 0 1 0 0-7 3.5 3.5 0 0 0 0 7"/><path fill="url(#u)" d="M7.52 29.01a3.5 3.5 0 1 0 0-7 3.5 3.5 0 0 0 0 7"/></g><path fill="url(#v)" d="M15.68 8 11 15h14V8z"/><path fill="url(#w)" d="M15.68 8 11 15h14V8z"/><path fill="url(#x)" d="M15.68 8 11 15h14V8z"/><path fill="#008461" d="M18 8h-1v7h1z"/><path fill="url(#y)" d="M3.5 21H2v-1h1.5c.28 0 .5.22.5.5a.5.5 0 0 1-.5.5"/><path fill="url(#z)" d="M3.5 21H2v-1h1.5c.28 0 .5.22.5.5a.5.5 0 0 1-.5.5"/><path fill="url(#A)" d="M3.5 19H2v-1h1.5c.28 0 .5.22.5.5a.5.5 0 0 1-.5.5"/><path fill="url(#B)" d="M3.5 19H2v-1h1.5c.28 0 .5.22.5.5a.5.5 0 0 1-.5.5"/><path fill="url(#C)" d="M3.5 23H2v-1h1.5c.28 0 .5.22.5.5a.5.5 0 0 1-.5.5"/><path fill="url(#D)" d="M3.5 23H2v-1h1.5c.28 0 .5.22.5.5a.5.5 0 0 1-.5.5"/><path fill="url(#E)" d="M14 7a1 1 0 0 1 1-1h10a1 1 0 0 1 1 1v1H15a1 1 0 0 1-1-1"/><path fill="url(#F)" d="M14 7a1 1 0 0 1 1-1h10a1 1 0 0 1 1 1v1H15a1 1 0 0 1-1-1"/><path fill="url(#G)" d="M14 7a1 1 0 0 1 1-1h10a1 1 0 0 1 1 1v1H15a1 1 0 0 1-1-1"/><path fill="url(#H)" d="M14 7a1 1 0 0 1 1-1h10a1 1 0 0 1 1 1v1H15a1 1 0 0 1-1-1"/><g filter="url(#I)"><path fill="#ccbed9" d="M7.52 26.78a1.27 1.27 0 1 0 0-2.54 1.27 1.27 0 0 0 0 2.54"/></g><g filter="url(#J)"><circle cx="7.7" cy="25.23" r="2.39" stroke="url(#K)" stroke-width=".75"/></g><g filter="url(#L)"><circle cx="24.91" cy="23.16" r="3.69" stroke="url(#M)"/></g><rect width="1.05" height="4.92" x="9.05" y="12.08" fill="url(#N)" rx=".52"/><rect width="1.05" height="4.92" x="9.05" y="12.08" fill="url(#O)" rx=".52"/><rect width="1.05" height="4.92" x="9.05" y="12.08" fill="url(#P)" rx=".52"/><rect width="1.05" height="4.92" x="9.05" y="12.08" fill="url(#Q)" rx=".52"/><path fill="url(#R)" fill-rule="evenodd" d="M9.05 14.11v-.98h1.04v.98z" clip-rule="evenodd"/><g filter="url(#S)"><path stroke="url(#T)" stroke-linecap="round" stroke-width=".25" d="M6.06 20.39h2.8c1.1.03 3.36.83 3.7 3.74"/></g><g filter="url(#U)"><path stroke="url(#V)" stroke-linecap="round" stroke-width=".25" d="M17.47 22.66c.03-1.07.57-3.53 2.47-4.91 1.9-1.37 3.5-1.28 4.58-1.28h4.98"/></g><defs><linearGradient id="b" x1="24.88" x2="2.63" y1="17" y2="17" gradientUnits="userSpaceOnUse"><stop stop-color="#37bc6e"/><stop offset="1" stop-color="#47d086"/></linearGradient><linearGradient id="c" x1="15.83" x2="15.83" y1="26.62" y2="23.92" gradientUnits="userSpaceOnUse"><stop stop-color="#293a5e"/><stop offset="1" stop-color="#293a5e" stop-opacity="0"/></linearGradient><linearGradient id="e" x1="15" x2="15" y1="26" y2="25.59" gradientUnits="userSpaceOnUse"><stop stop-color="#464274"/><stop offset="1" stop-color="#464274" stop-opacity="0"/></linearGradient><linearGradient id="f" x1="15" x2="15" y1="15" y2="17.47" gradientUnits="userSpaceOnUse"><stop offset=".16" stop-color="#45f18a"/><stop offset="1" stop-color="#45f18a" stop-opacity="0"/></linearGradient><linearGradient id="g" x1="9.69" x2="9.69" y1="19" y2="17.43" gradientUnits="userSpaceOnUse"><stop stop-color="#36c570"/><stop offset="1" stop-color="#36c570" stop-opacity="0"/></linearGradient><linearGradient id="j" x1="21.96" x2="30.23" y1="22.13" y2="22.13" gradientUnits="userSpaceOnUse"><stop offset=".24" stop-color="#34214f"/><stop offset="1" stop-color="#241337"/></linearGradient><linearGradient id="p" x1="12.38" x2="12.38" y1="25.38" y2="24.53" gradientUnits="userSpaceOnUse"><stop stop-color="#272859"/><stop offset="1" stop-color="#272859" stop-opacity="0"/></linearGradient><linearGradient id="r" x1="28.91" x2="28.91" y1="24.05" y2="22.78" gradientUnits="userSpaceOnUse"><stop stop-color="#272859"/><stop offset="1" stop-color="#272859" stop-opacity="0"/></linearGradient><linearGradient id="t" x1="5.91" x2="11.16" y1="24.63" y2="24.63" gradientUnits="userSpaceOnUse"><stop offset=".24" stop-color="#34214f"/><stop offset="1" stop-color="#241337"/></linearGradient><linearGradient id="v" x1="19.27" x2="19.27" y1="5.72" y2="12.69" gradientUnits="userSpaceOnUse"><stop stop-color="#2a80d7"/><stop offset="1" stop-color="#46fafa"/></linearGradient><linearGradient id="w" x1="25.91" x2="23.84" y1="12.47" y2="12.47" gradientUnits="userSpaceOnUse"><stop stop-color="#37c3da"/><stop offset="1" stop-color="#37c3da" stop-opacity="0"/></linearGradient><linearGradient id="x" x1="18" x2="18" y1="7.24" y2="11.23" gradientUnits="userSpaceOnUse"><stop stop-color="#2066c3"/><stop offset="1" stop-color="#2066c3" stop-opacity="0"/></linearGradient><linearGradient id="y" x1="3.26" x2="4.11" y1="20.5" y2="20.49" gradientUnits="userSpaceOnUse"><stop stop-color="#290941"/><stop offset="1" stop-color="#1a0726"/></linearGradient><linearGradient id="A" x1="3.26" x2="4.11" y1="18.5" y2="18.49" gradientUnits="userSpaceOnUse"><stop stop-color="#290941"/><stop offset="1" stop-color="#1a0726"/></linearGradient><linearGradient id="C" x1="3.26" x2="4.11" y1="22.5" y2="22.49" gradientUnits="userSpaceOnUse"><stop stop-color="#290941"/><stop offset="1" stop-color="#1a0726"/></linearGradient><linearGradient id="E" x1="18.12" x2="18.12" y1="6.4" y2="7.83" gradientUnits="userSpaceOnUse"><stop stop-color="#4fea8c"/><stop offset="1" stop-color="#00d263"/><stop offset="1" stop-color="#19965f"/></linearGradient><linearGradient id="F" x1="21.06" x2="21.06" y1="8.47" y2="7.5" gradientUnits="userSpaceOnUse"><stop stop-color="#1a9461"/><stop offset="1" stop-color="#1a9461" stop-opacity="0"/></linearGradient><linearGradient id="H" x1="20" x2="20" y1="6" y2="6.08" gradientUnits="userSpaceOnUse"><stop stop-color="#4bd780"/><stop offset="1" stop-color="#4bd780" stop-opacity="0"/></linearGradient><linearGradient id="K" x1="9.49" x2="5.88" y1="22.84" y2="27.1" gradientUnits="userSpaceOnUse"><stop offset=".08" stop-color="#615b6b"/><stop offset=".39" stop-color="#615b6b" stop-opacity="0"/><stop offset=".69" stop-color="#615b6b" stop-opacity="0"/><stop offset=".93" stop-color="#615b6b"/></linearGradient><linearGradient id="M" x1="27.66" x2="22.1" y1="19.47" y2="26.03" gradientUnits="userSpaceOnUse"><stop offset=".08" stop-color="#615b6b"/><stop offset=".39" stop-color="#615b6b" stop-opacity="0"/><stop offset=".69" stop-color="#615b6b" stop-opacity="0"/><stop offset=".93" stop-color="#615b6b"/></linearGradient><linearGradient id="N" x1="9.05" x2="9.75" y1="14.97" y2="14.97" gradientUnits="userSpaceOnUse"><stop stop-color="#b4a5b9"/><stop offset="1" stop-color="#d6cde0"/></linearGradient><linearGradient id="P" x1="9.66" x2="9.66" y1="17.11" y2="16.42" gradientUnits="userSpaceOnUse"><stop stop-color="#744498"/><stop offset="1" stop-color="#744498" stop-opacity="0"/></linearGradient><linearGradient id="Q" x1="9.05" x2="9.28" y1="14.38" y2="14.38" gradientUnits="userSpaceOnUse"><stop stop-color="#8c7d88"/><stop offset="1" stop-color="#8c7d88" stop-opacity="0"/></linearGradient><linearGradient id="R" x1="10.09" x2="9.05" y1="13.89" y2="13.89" gradientUnits="userSpaceOnUse"><stop stop-color="#30144d"/><stop offset="1" stop-color="#44335c"/></linearGradient><linearGradient id="T" x1="6.8" x2="13.35" y1="20.15" y2="21.92" gradientUnits="userSpaceOnUse"><stop stop-color="#3e8f75"/><stop offset="1" stop-color="#3e8f75" stop-opacity="0"/></linearGradient><linearGradient id="V" x1="18.77" x2="30.3" y1="16.01" y2="19.34" gradientUnits="userSpaceOnUse"><stop stop-color="#3e8f75"/><stop offset="1" stop-color="#3e8f75" stop-opacity="0"/></linearGradient><filter id="a" width="27" height="11" x="2" y="15" color-interpolation-filters="sRGB" filterUnits="userSpaceOnUse"><feFlood flood-opacity="0" result="BackgroundImageFix"/><feBlend in="SourceGraphic" in2="BackgroundImageFix" result="shape"/><feColorMatrix in="SourceAlpha" result="hardAlpha" values="0 0 0 0 0 0 0 0 0 0 0 0 0 0 0 0 0 0 127 0"/><feOffset dx="1"/><feGaussianBlur stdDeviation=".5"/><feComposite in2="hardAlpha" k2="-1" k3="1" operator="arithmetic"/><feColorMatrix values="0 0 0 0 0.211765 0 0 0 0 0.521569 0 0 0 0 0.305882 0 0 0 1 0"/><feBlend in2="shape" result="effect1_innerShadow_18_10906"/></filter><filter id="h" width="8.79" height="6.5" x="4.5" y="19.64" color-interpolation-filters="sRGB" filterUnits="userSpaceOnUse"><feFlood flood-opacity="0" result="BackgroundImageFix"/><feBlend in="SourceGraphic" in2="BackgroundImageFix" result="shape"/><feGaussianBlur result="effect1_foregroundBlur_18_10906" stdDeviation=".38"/></filter><filter id="i" width="11" height="11.15" x="19" y="18.01" color-interpolation-filters="sRGB" filterUnits="userSpaceOnUse"><feFlood flood-opacity="0" result="BackgroundImageFix"/><feBlend in="SourceGraphic" in2="BackgroundImageFix" result="shape"/><feColorMatrix in="SourceAlpha" result="hardAlpha" values="0 0 0 0 0 0 0 0 0 0 0 0 0 0 0 0 0 0 127 0"/><feOffset/><feGaussianBlur stdDeviation=".5"/><feComposite in2="hardAlpha" k2="-1" k3="1" operator="arithmetic"/><feColorMatrix values="0 0 0 0 0.145098 0 0 0 0 0.0823529 0 0 0 0 0.215686 0 0 0 1 0"/><feBlend in2="shape" result="effect1_innerShadow_18_10906"/><feColorMatrix in="SourceAlpha" result="hardAlpha" values="0 0 0 0 0 0 0 0 0 0 0 0 0 0 0 0 0 0 127 0"/><feOffset dy=".15"/><feGaussianBlur stdDeviation=".13"/><feComposite in2="hardAlpha" k2="-1" k3="1" operator="arithmetic"/><feColorMatrix values="0 0 0 0 0.207843 0 0 0 0 0.0313726 0 0 0 0 0.235294 0 0 0 1 0"/><feBlend in2="effect1_innerShadow_18_10906" result="effect2_innerShadow_18_10906"/></filter><filter id="m" width="4.13" height="4.13" x="22.43" y="21.44" color-interpolation-filters="sRGB" filterUnits="userSpaceOnUse"><feFlood flood-opacity="0" result="BackgroundImageFix"/><feBlend in="SourceGraphic" in2="BackgroundImageFix" result="shape"/><feColorMatrix in="SourceAlpha" result="hardAlpha" values="0 0 0 0 0 0 0 0 0 0 0 0 0 0 0 0 0 0 127 0"/><feOffset dx=".05" dy="-.05"/><feGaussianBlur stdDeviation=".05"/><feComposite in2="hardAlpha" k2="-1" k3="1" operator="arithmetic"/><feColorMatrix values="0 0 0 0 0.478431 0 0 0 0 0.364706 0 0 0 0 0.584314 0 0 0 1 0"/><feBlend in2="shape" result="effect1_innerShadow_18_10906"/><feColorMatrix in="SourceAlpha" result="hardAlpha" values="0 0 0 0 0 0 0 0 0 0 0 0 0 0 0 0 0 0 127 0"/><feOffset dx="-.05" dy=".05"/><feGaussianBlur stdDeviation=".05"/><feComposite in2="hardAlpha" k2="-1" k3="1" operator="arithmetic"/><feColorMatrix values="0 0 0 0 0.807843 0 0 0 0 0.764706 0 0 0 0 0.858824 0 0 0 1 0"/><feBlend in2="effect1_innerShadow_18_10906" result="effect2_innerShadow_18_10906"/></filter><filter id="n" width="12.78" height="9.05" x="15.63" y="15.72" color-interpolation-filters="sRGB" filterUnits="userSpaceOnUse"><feFlood flood-opacity="0" result="BackgroundImageFix"/><feBlend in="SourceGraphic" in2="BackgroundImageFix" result="shape"/><feGaussianBlur result="effect1_foregroundBlur_18_10906" stdDeviation=".38"/></filter><filter id="o" width="7.49" height="5.25" x="5.52" y="19.76" color-interpolation-filters="sRGB" filterUnits="userSpaceOnUse"><feFlood flood-opacity="0" result="BackgroundImageFix"/><feBlend in="SourceGraphic" in2="BackgroundImageFix" result="shape"/><feColorMatrix in="SourceAlpha" result="hardAlpha" values="0 0 0 0 0 0 0 0 0 0 0 0 0 0 0 0 0 0 127 0"/><feOffset dy="-.25"/><feGaussianBlur stdDeviation=".25"/><feComposite in2="hardAlpha" k2="-1" k3="1" operator="arithmetic"/><feColorMatrix values="0 0 0 0 0.0705882 0 0 0 0 0.239216 0 0 0 0 0.290196 0 0 0 1 0"/><feBlend in2="shape" result="effect1_innerShadow_18_10906"/></filter><filter id="q" width="13.01" height="7.75" x="17" y="15.75" color-interpolation-filters="sRGB" filterUnits="userSpaceOnUse"><feFlood flood-opacity="0" result="BackgroundImageFix"/><feBlend in="SourceGraphic" in2="BackgroundImageFix" result="shape"/><feColorMatrix in="SourceAlpha" result="hardAlpha" values="0 0 0 0 0 0 0 0 0 0 0 0 0 0 0 0 0 0 127 0"/><feOffset dy="-.25"/><feGaussianBlur stdDeviation=".25"/><feComposite in2="hardAlpha" k2="-1" k3="1" operator="arithmetic"/><feColorMatrix values="0 0 0 0 0.0705882 0 0 0 0 0.239216 0 0 0 0 0.290196 0 0 0 1 0"/><feBlend in2="shape" result="effect1_innerShadow_18_10906"/></filter><filter id="s" width="7" height="7.15" x="4.02" y="22.01" color-interpolation-filters="sRGB" filterUnits="userSpaceOnUse"><feFlood flood-opacity="0" result="BackgroundImageFix"/><feBlend in="SourceGraphic" in2="BackgroundImageFix" result="shape"/><feColorMatrix in="SourceAlpha" result="hardAlpha" values="0 0 0 0 0 0 0 0 0 0 0 0 0 0 0 0 0 0 127 0"/><feOffset/><feGaussianBlur stdDeviation=".5"/><feComposite in2="hardAlpha" k2="-1" k3="1" operator="arithmetic"/><feColorMatrix values="0 0 0 0 0.145098 0 0 0 0 0.0823529 0 0 0 0 0.215686 0 0 0 1 0"/><feBlend in2="shape" result="effect1_innerShadow_18_10906"/><feColorMatrix in="SourceAlpha" result="hardAlpha" values="0 0 0 0 0 0 0 0 0 0 0 0 0 0 0 0 0 0 127 0"/><feOffset dy=".15"/><feGaussianBlur stdDeviation=".13"/><feComposite in2="hardAlpha" k2="-1" k3="1" operator="arithmetic"/><feColorMatrix values="0 0 0 0 0.207843 0 0 0 0 0.0313726 0 0 0 0 0.235294 0 0 0 1 0"/><feBlend in2="effect1_innerShadow_18_10906" result="effect2_innerShadow_18_10906"/></filter><filter id="I" width="2.65" height="2.65" x="6.2" y="24.19" color-interpolation-filters="sRGB" filterUnits="userSpaceOnUse"><feFlood flood-opacity="0" result="BackgroundImageFix"/><feBlend in="SourceGraphic" in2="BackgroundImageFix" result="shape"/><feColorMatrix in="SourceAlpha" result="hardAlpha" values="0 0 0 0 0 0 0 0 0 0 0 0 0 0 0 0 0 0 127 0"/><feOffset dx=".05" dy="-.05"/><feGaussianBlur stdDeviation=".05"/><feComposite in2="hardAlpha" k2="-1" k3="1" operator="arithmetic"/><feColorMatrix values="0 0 0 0 0.478431 0 0 0 0 0.364706 0 0 0 0 0.584314 0 0 0 1 0"/><feBlend in2="shape" result="effect1_innerShadow_18_10906"/><feColorMatrix in="SourceAlpha" result="hardAlpha" values="0 0 0 0 0 0 0 0 0 0 0 0 0 0 0 0 0 0 127 0"/><feOffset dx="-.05" dy=".05"/><feGaussianBlur stdDeviation=".05"/><feComposite in2="hardAlpha" k2="-1" k3="1" operator="arithmetic"/><feColorMatrix values="0 0 0 0 0.807843 0 0 0 0 0.764706 0 0 0 0 0.858824 0 0 0 1 0"/><feBlend in2="effect1_innerShadow_18_10906" result="effect2_innerShadow_18_10906"/></filter><filter id="J" width="7.03" height="7.03" x="4.19" y="21.72" color-interpolation-filters="sRGB" filterUnits="userSpaceOnUse"><feFlood flood-opacity="0" result="BackgroundImageFix"/><feBlend in="SourceGraphic" in2="BackgroundImageFix" result="shape"/><feGaussianBlur result="effect1_foregroundBlur_18_10906" stdDeviation=".38"/></filter><filter id="L" width="9.88" height="9.88" x="19.97" y="18.22" color-interpolation-filters="sRGB" filterUnits="userSpaceOnUse"><feFlood flood-opacity="0" result="BackgroundImageFix"/><feBlend in="SourceGraphic" in2="BackgroundImageFix" result="shape"/><feGaussianBlur result="effect1_foregroundBlur_18_10906" stdDeviation=".38"/></filter><filter id="S" width="7.24" height="4.5" x="5.69" y="20.01" color-interpolation-filters="sRGB" filterUnits="userSpaceOnUse"><feFlood flood-opacity="0" result="BackgroundImageFix"/><feBlend in="SourceGraphic" in2="BackgroundImageFix" result="shape"/><feGaussianBlur result="effect1_foregroundBlur_18_10906" stdDeviation=".13"/></filter><filter id="U" width="12.78" height="6.94" x="17.09" y="16.09" color-interpolation-filters="sRGB" filterUnits="userSpaceOnUse"><feFlood flood-opacity="0" result="BackgroundImageFix"/><feBlend in="SourceGraphic" in2="BackgroundImageFix" result="shape"/><feGaussianBlur result="effect1_foregroundBlur_18_10906" stdDeviation=".13"/></filter><radialGradient id="d" cx="0" cy="0" r="1" gradientTransform="rotate(108.61 1.97 19.31)scale(4.64469 2.78231)" gradientUnits="userSpaceOnUse"><stop offset=".63" stop-color="#293a5e"/><stop offset="1" stop-color="#293a5e" stop-opacity="0"/></radialGradient><radialGradient id="k" cx="0" cy="0" r="1" gradientTransform="rotate(-65.54 30.13 -7.52)scale(3.00095 3.13439)" gradientUnits="userSpaceOnUse"><stop offset=".52" stop-color="#2d114d"/><stop offset="1" stop-color="#2b1249" stop-opacity="0"/></radialGradient><radialGradient id="l" cx="0" cy="0" r="1" gradientTransform="matrix(1.01563 .67188 -.75497 1.14124 26 23.9)" gradientUnits="userSpaceOnUse"><stop stop-color="#392a49"/><stop offset="1" stop-color="#392a49" stop-opacity="0"/></radialGradient><radialGradient id="u" cx="0" cy="0" r="1" gradientTransform="rotate(-65.54 23.33 6.76)scale(1.9097 1.99461)" gradientUnits="userSpaceOnUse"><stop offset=".52" stop-color="#2d114d"/><stop offset="1" stop-color="#2b1249" stop-opacity="0"/></radialGradient><radialGradient id="z" cx="0" cy="0" r="1" gradientTransform="rotate(204.79 4.28 9.93)scale(.39198 .38172)" gradientUnits="userSpaceOnUse"><stop stop-color="#352938"/><stop offset="1" stop-color="#352938" stop-opacity="0"/></radialGradient><radialGradient id="B" cx="0" cy="0" r="1" gradientTransform="rotate(204.79 4.06 8.93)scale(.39198 .38172)" gradientUnits="userSpaceOnUse"><stop stop-color="#352938"/><stop offset="1" stop-color="#352938" stop-opacity="0"/></radialGradient><radialGradient id="D" cx="0" cy="0" r="1" gradientTransform="rotate(204.79 4.5 10.93)scale(.39198 .38172)" gradientUnits="userSpaceOnUse"><stop stop-color="#352938"/><stop offset="1" stop-color="#352938" stop-opacity="0"/></radialGradient><radialGradient id="G" cx="0" cy="0" r="1" gradientTransform="rotate(207.81 13.22 2.62)scale(10.9581 6.44616)" gradientUnits="userSpaceOnUse"><stop offset=".9" stop-color="#419f64" stop-opacity="0"/><stop offset="1" stop-color="#419f64"/></radialGradient><radialGradient id="O" cx="0" cy="0" r="1" gradientTransform="rotate(-22.54 35.68 -19.5)scale(.89663 .73135)" gradientUnits="userSpaceOnUse"><stop stop-color="#f0edf3"/><stop offset="1" stop-color="#f0edf3" stop-opacity="0"/></radialGradient></defs></svg>