<svg xmlns="http://www.w3.org/2000/svg" fill="none" viewBox="0 0 32 32"><circle cx="5.55" cy="23.5" r="3.5" fill="#a7de50"/><circle cx="5.55" cy="23.5" r="3.5" fill="url(#a)"/><circle cx="5.55" cy="23.5" r="3.5" fill="url(#b)"/><circle cx="5.55" cy="23.5" r="3.5" fill="url(#c)"/><circle cx="5.55" cy="23.5" r="3.5" fill="url(#d)"/><g filter="url(#e)"><circle cx="4.73" cy="22.64" r=".5" fill="#5b841c"/></g><path fill="#a7cd4c" d="m5 26.98 7.98-.98v2.5c0 .83-.67 1.5-1.5 1.5H6.5A1.5 1.5 0 0 1 5 28.5z"/><path fill="url(#f)" d="m5 26.98 7.98-.98v2.5c0 .83-.67 1.5-1.5 1.5H6.5A1.5 1.5 0 0 1 5 28.5z"/><path fill="url(#g)" d="m5 26.98 7.98-.98v2.5c0 .83-.67 1.5-1.5 1.5H6.5A1.5 1.5 0 0 1 5 28.5z"/><path fill="url(#h)" d="m5 26.98 7.98-.98v2.5c0 .83-.67 1.5-1.5 1.5H6.5A1.5 1.5 0 0 1 5 28.5z"/><path fill="url(#i)" d="m5 26.98 7.98-.98v2.5c0 .83-.67 1.5-1.5 1.5H6.5A1.5 1.5 0 0 1 5 28.5z"/><path fill="url(#j)" d="m5 26.98 7.98-.98v2.5c0 .83-.67 1.5-1.5 1.5H6.5A1.5 1.5 0 0 1 5 28.5z"/><path fill="#a7cd4c" d="M19.97 25.94h7.98v2.5c0 .83-.67 1.5-1.5 1.5h-4.98a1.5 1.5 0 0 1-1.5-1.5z"/><path fill="url(#k)" d="M19.97 25.94h7.98v2.5c0 .83-.67 1.5-1.5 1.5h-4.98a1.5 1.5 0 0 1-1.5-1.5z"/><path fill="url(#l)" d="M19.97 25.94h7.98v2.5c0 .83-.67 1.5-1.5 1.5h-4.98a1.5 1.5 0 0 1-1.5-1.5z"/><path fill="url(#m)" d="M19.97 25.94h7.98v2.5c0 .83-.67 1.5-1.5 1.5h-4.98a1.5 1.5 0 0 1-1.5-1.5z"/><path fill="url(#n)" d="M19.97 25.94h7.98v2.5c0 .83-.67 1.5-1.5 1.5h-4.98a1.5 1.5 0 0 1-1.5-1.5z"/><path fill="url(#o)" d="M19.97 25.94h7.98v2.5c0 .83-.67 1.5-1.5 1.5h-4.98a1.5 1.5 0 0 1-1.5-1.5z"/><path fill="url(#p)" d="M29.64 25.59c-.25-.22-2.15-2.05-2.15-2.05l-.66 3.44h2.36c.25 0 .58-.17.71-.46.14-.3 0-.72-.26-.93"/><path fill="url(#q)" d="M29.64 25.59c-.25-.22-2.15-2.05-2.15-2.05l-.66 3.44h2.36c.25 0 .58-.17.71-.46.14-.3 0-.72-.26-.93"/><path fill="url(#r)" d="M29.64 25.59c-.25-.22-2.15-2.05-2.15-2.05l-.66 3.44h2.36c.25 0 .58-.17.71-.46.14-.3 0-.72-.26-.93"/><path fill="url(#s)" d="M29.64 25.59c-.25-.22-2.15-2.05-2.15-2.05l-.66 3.44h2.36c.25 0 .58-.17.71-.46.14-.3 0-.72-.26-.93"/><g filter="url(#t)"><path fill="url(#u)" d="M16.4 12.78A11.26 11.26 0 0 0 5.04 24.25c0 .92-.05 1.81-.05 2.73h22.94v-2.76a11.4 11.4 0 0 0-11.55-11.44"/><path fill="url(#v)" d="M16.4 12.78A11.26 11.26 0 0 0 5.04 24.25c0 .92-.05 1.81-.05 2.73h22.94v-2.76a11.4 11.4 0 0 0-11.55-11.44"/><path fill="url(#w)" d="M16.4 12.78A11.26 11.26 0 0 0 5.04 24.25c0 .92-.05 1.81-.05 2.73h22.94v-2.76a11.4 11.4 0 0 0-11.55-11.44"/><path fill="url(#x)" d="M16.4 12.78A11.26 11.26 0 0 0 5.04 24.25c0 .92-.05 1.81-.05 2.73h22.94v-2.76a11.4 11.4 0 0 0-11.55-11.44"/><path fill="url(#y)" d="M16.4 12.78A11.26 11.26 0 0 0 5.04 24.25c0 .92-.05 1.81-.05 2.73h22.94v-2.76a11.4 11.4 0 0 0-11.55-11.44"/></g><path fill="url(#z)" d="M16.4 12.78A11.26 11.26 0 0 0 5.04 24.25c0 .92-.05 1.81-.05 2.73h22.94v-2.76a11.4 11.4 0 0 0-11.55-11.44"/><path fill="url(#A)" d="M16.4 12.78A11.26 11.26 0 0 0 5.04 24.25c0 .92-.05 1.81-.05 2.73h22.94v-2.76a11.4 11.4 0 0 0-11.55-11.44"/><circle cx="4.48" cy="22.44" r=".5" fill="url(#B)"/><circle cx="4.48" cy="22.44" r=".5" fill="url(#C)"/><g filter="url(#D)"><path fill="url(#E)" fill-rule="evenodd" d="M10.9 16.22a.5.5 0 0 0-.8.59l.4-.3-.4.3v.01l.1.11q.09.11.26.27.36.34 1.09.78.47.27 1.12.52l-2.11 4.38a11 11 0 0 1-2.24-1.37l-.42-.4-.01-.02a.5.5 0 0 0-.77.64l.38-.32-.38.32.01.01.13.15.41.38c.36.3.9.71 1.65 1.11 1.48.81 3.76 1.6 6.94 1.6s5.56-.78 7.14-1.57a12 12 0 0 0 2.4-1.6v-.02l-.35-.35.36.35a.5.5 0 0 0-.71-.7l-.03.02a4 4 0 0 1-.48.4 11 11 0 0 1-2.23 1.28l-2.1-4.36a9 9 0 0 0 2.17-1.2l.4-.37h.01v-.01l-.37-.33.37.33a.5.5 0 0 0-.75-.67v.01l-.29.26q-.31.27-1 .65c-.93.48-2.39.98-4.47.98s-3.45-.5-4.3-.97a5 5 0 0 1-1.12-.88zm10.53 6.94-2.14-4.43c-.83.2-1.81.35-2.96.35q-1.55-.01-2.69-.3l-2.15 4.47c1.24.42 2.81.73 4.77.73 2.1 0 3.82-.36 5.17-.82" clip-rule="evenodd"/></g><g filter="url(#F)"><path fill="url(#G)" fill-rule="evenodd" d="M10.9 16.22a.5.5 0 0 0-.8.59l.4-.3-.4.3v.01l.1.11q.09.11.26.27.36.34 1.09.78.47.27 1.12.52l-2.11 4.38a11 11 0 0 1-2.24-1.37l-.42-.4-.01-.02a.5.5 0 0 0-.77.64l.38-.32-.38.32.01.01.13.15.41.38c.36.3.9.71 1.65 1.11 1.48.81 3.76 1.6 6.94 1.6s5.56-.78 7.14-1.57a12 12 0 0 0 2.4-1.6v-.02l-.35-.35.36.35a.5.5 0 0 0-.71-.7l-.03.02a4 4 0 0 1-.48.4 11 11 0 0 1-2.23 1.28l-2.1-4.36a9 9 0 0 0 2.17-1.2l.4-.37h.01v-.01l-.37-.33.37.33a.5.5 0 0 0-.75-.67v.01l-.29.26q-.31.27-1 .65c-.93.48-2.39.98-4.47.98s-3.45-.5-4.3-.97a5 5 0 0 1-1.12-.88zm10.53 6.94-2.14-4.43c-.83.2-1.81.35-2.96.35q-1.55-.01-2.69-.3l-2.15 4.47c1.24.42 2.81.73 4.77.73 2.1 0 3.82-.36 5.17-.82" clip-rule="evenodd"/></g><g filter="url(#H)"><path stroke="url(#I)" stroke-linecap="round" stroke-width=".15" d="M17.67 18.4a7.6 7.6 0 0 0 4.78-1.96"/></g><g filter="url(#J)"><path stroke="url(#K)" stroke-linecap="round" stroke-width=".15" d="M16.83 24.64c3.84-.25 6.2-1.1 8.73-3.1"/></g><g filter="url(#L)"><path stroke="url(#M)" stroke-linecap="round" stroke-width=".15" d="m13 18.66-1.84 3.98"/></g><g filter="url(#N)"><path stroke="url(#O)" stroke-linecap="round" stroke-width=".15" d="M10.52 16.82c.15.18.64.59 1.13.86"/></g><g filter="url(#P)"><path stroke="url(#Q)" stroke-linecap="round" stroke-opacity=".5" stroke-width=".15" d="M7.63 21.7c.15.19.64.6 1.13.87"/></g><defs><linearGradient id="a" x1="3.8" x2="3.8" y1="26.34" y2="23.5" gradientUnits="userSpaceOnUse"><stop stop-color="#a3a560"/><stop offset=".96" stop-color="#a3a560" stop-opacity="0"/></linearGradient><linearGradient id="g" x1="6.98" x2="6.98" y1="30.34" y2="28.25" gradientUnits="userSpaceOnUse"><stop stop-color="#a3a560"/><stop offset=".96" stop-color="#a3a560" stop-opacity="0"/></linearGradient><linearGradient id="h" x1="10.33" x2="9.52" y1="26" y2="28.5" gradientUnits="userSpaceOnUse"><stop offset=".12" stop-color="#858d4a"/><stop offset=".96" stop-color="#858d4a" stop-opacity="0"/></linearGradient><linearGradient id="i" x1="8.99" x2="8.99" y1="25.56" y2="30.14" gradientUnits="userSpaceOnUse"><stop offset=".81" stop-color="#d4a6c6" stop-opacity="0"/><stop offset=".98" stop-color="#d5a6c6"/></linearGradient><linearGradient id="j" x1="13.45" x2="4.79" y1="27.76" y2="27.76" gradientUnits="userSpaceOnUse"><stop offset=".94" stop-color="#f0fada" stop-opacity="0"/><stop offset="1" stop-color="#f0fada"/></linearGradient><linearGradient id="l" x1="21.95" x2="21.95" y1="31" y2="28.81" gradientUnits="userSpaceOnUse"><stop stop-color="#a3a560"/><stop offset=".96" stop-color="#a3a560" stop-opacity="0"/></linearGradient><linearGradient id="m" x1="22.67" x2="23.96" y1="25.94" y2="28.75" gradientUnits="userSpaceOnUse"><stop offset=".12" stop-color="#858d4a"/><stop offset=".96" stop-color="#858d4a" stop-opacity="0"/></linearGradient><linearGradient id="n" x1="23.96" x2="23.96" y1="25.5" y2="29.94" gradientUnits="userSpaceOnUse"><stop offset=".81" stop-color="#d4a6c6" stop-opacity="0"/><stop offset=".98" stop-color="#d5a6c6"/></linearGradient><linearGradient id="p" x1="28.83" x2="28.64" y1="24.91" y2="26.72" gradientUnits="userSpaceOnUse"><stop stop-color="#c4ff66"/><stop offset="1" stop-color="#b0e254"/></linearGradient><linearGradient id="q" x1="28.95" x2="28.7" y1="24.86" y2="25.17" gradientUnits="userSpaceOnUse"><stop stop-color="#b0e254"/><stop offset="1" stop-color="#b0e254" stop-opacity="0"/></linearGradient><linearGradient id="r" x1="27.77" x2="27.61" y1="27.81" y2="26.01" gradientUnits="userSpaceOnUse"><stop stop-color="#a3a560"/><stop offset=".96" stop-color="#a3a560" stop-opacity="0"/></linearGradient><linearGradient id="s" x1="28.39" x2="28.39" y1="23.16" y2="27.14" gradientUnits="userSpaceOnUse"><stop offset=".9" stop-color="#d4a6c6" stop-opacity="0"/><stop offset=".96" stop-color="#d5a6c6"/></linearGradient><linearGradient id="w" x1="16.47" x2="16.47" y1="28" y2="25.25" gradientUnits="userSpaceOnUse"><stop stop-color="#3d7f92"/><stop offset="1" stop-color="#3d7f92" stop-opacity="0"/></linearGradient><linearGradient id="x" x1="30.23" x2="26.3" y1="25.25" y2="25.25" gradientUnits="userSpaceOnUse"><stop stop-color="#3d7f92"/><stop offset="1" stop-color="#3d7f92" stop-opacity="0"/></linearGradient><linearGradient id="z" x1="16.47" x2="16.47" y1="28.06" y2="25.75" gradientUnits="userSpaceOnUse"><stop stop-color="#3c9a91"/><stop offset="1" stop-color="#3c9a91" stop-opacity="0"/></linearGradient><linearGradient id="A" x1="16.47" x2="16.47" y1="27.38" y2="25.25" gradientUnits="userSpaceOnUse"><stop stop-color="#3d7f92"/><stop offset=".65" stop-color="#3d7f92" stop-opacity="0"/></linearGradient><linearGradient id="E" x1="16.48" x2="16.48" y1="17.56" y2="27.38" gradientUnits="userSpaceOnUse"><stop stop-color="#67bd5b"/><stop offset="1" stop-color="#6cb768"/></linearGradient><linearGradient id="I" x1="22.45" x2="17.67" y1="16.44" y2="18.75" gradientUnits="userSpaceOnUse"><stop stop-color="#87e27a"/><stop offset="1" stop-color="#87e27a" stop-opacity="0"/></linearGradient><linearGradient id="K" x1="24.84" x2="11.8" y1="21.65" y2="26" gradientUnits="userSpaceOnUse"><stop stop-color="#87e27a"/><stop offset="1" stop-color="#87e27a" stop-opacity="0"/></linearGradient><linearGradient id="M" x1="12.82" x2="9.77" y1="18.58" y2="18.74" gradientUnits="userSpaceOnUse"><stop stop-color="#87e27a"/><stop offset="1" stop-color="#87e27a" stop-opacity="0"/></linearGradient><linearGradient id="O" x1="10.68" x2="11.57" y1="16.82" y2="18.58" gradientUnits="userSpaceOnUse"><stop stop-color="#87e27a"/><stop offset="1" stop-color="#87e27a" stop-opacity="0"/></linearGradient><linearGradient id="Q" x1="7.79" x2="8.68" y1="21.71" y2="23.47" gradientUnits="userSpaceOnUse"><stop stop-color="#87e27a"/><stop offset="1" stop-color="#87e27a" stop-opacity="0"/></linearGradient><radialGradient id="b" cx="0" cy="0" r="1" gradientTransform="matrix(0 3.9375 -4.36106 0 5.55 23.17)" gradientUnits="userSpaceOnUse"><stop offset=".84" stop-color="#d4a6c6" stop-opacity="0"/><stop offset=".98" stop-color="#d5a6c6"/></radialGradient><radialGradient id="c" cx="0" cy="0" r="1" gradientTransform="rotate(251.48 10.98 9.2)scale(3.3451 2.12947)" gradientUnits="userSpaceOnUse"><stop offset=".22" stop-color="#79b037"/><stop offset="1" stop-color="#79b037" stop-opacity="0"/></radialGradient><radialGradient id="d" cx="0" cy="0" r="1" gradientTransform="rotate(169.7 1.76 12.14)scale(3.84324 3.8125)" gradientUnits="userSpaceOnUse"><stop offset=".87" stop-color="#f0fada" stop-opacity="0"/><stop offset="1" stop-color="#f0fada"/></radialGradient><radialGradient id="f" cx="0" cy="0" r="1" gradientTransform="rotate(194.24 8.77 13.12)scale(4.32019 2.61535)" gradientUnits="userSpaceOnUse"><stop stop-color="#79b037"/><stop offset="1" stop-color="#79b037" stop-opacity="0"/></radialGradient><radialGradient id="k" cx="0" cy="0" r="1" gradientTransform="matrix(3.75 1.0625 -.64321 2.27017 19.3 25.94)" gradientUnits="userSpaceOnUse"><stop stop-color="#79b037"/><stop offset="1" stop-color="#79b037" stop-opacity="0"/></radialGradient><radialGradient id="o" cx="0" cy="0" r="1" gradientTransform="rotate(154.88 11.1 16.58)scale(7.21361 1.91255)" gradientUnits="userSpaceOnUse"><stop stop-color="#c0ef52"/><stop offset="1" stop-color="#c0ef52" stop-opacity="0"/></radialGradient><radialGradient id="u" cx="0" cy="0" r="1" gradientTransform="rotate(229.42 16.82 4.3)scale(7.49417 10.5379)" gradientUnits="userSpaceOnUse"><stop stop-color="#6fc1ad"/><stop offset="1" stop-color="#3b9990"/></radialGradient><radialGradient id="v" cx="0" cy="0" r="1" gradientTransform="matrix(0 7.125 -12.5459 0 16.47 14.44)" gradientUnits="userSpaceOnUse"><stop stop-color="#4ca589"/><stop offset="1" stop-color="#4ca589" stop-opacity="0"/></radialGradient><radialGradient id="y" cx="0" cy="0" r="1" gradientTransform="rotate(16.22 -66.94 29.64)scale(5.91201 6.50475)" gradientUnits="userSpaceOnUse"><stop stop-color="#7cae9f"/><stop offset="1" stop-color="#7cae9f" stop-opacity="0"/></radialGradient><radialGradient id="B" cx="0" cy="0" r="1" gradientTransform="rotate(-40.6 32.83 5.66)scale(.81349)" gradientUnits="userSpaceOnUse"><stop stop-color="#5a2d67"/><stop offset="1" stop-color="#2b2426"/></radialGradient><radialGradient id="C" cx="0" cy="0" r="1" gradientTransform="rotate(219.38 6.5 10.53)scale(1.07134 .7121)" gradientUnits="userSpaceOnUse"><stop offset=".69" stop-color="#736c6c" stop-opacity="0"/><stop offset="1" stop-color="#736c6c"/></radialGradient><radialGradient id="G" cx="0" cy="0" r="1" gradientTransform="rotate(109.06 5.41 16.39)scale(14.5473 30.7419)" gradientUnits="userSpaceOnUse"><stop stop-color="#6cd45b"/><stop offset="1" stop-color="#6cd45b" stop-opacity="0"/></radialGradient><filter id="e" width="2" height="2" x="3.73" y="21.64" color-interpolation-filters="sRGB" filterUnits="userSpaceOnUse"><feFlood flood-opacity="0" result="BackgroundImageFix"/><feBlend in="SourceGraphic" in2="BackgroundImageFix" result="shape"/><feGaussianBlur result="effect1_foregroundBlur_28327_5496" stdDeviation=".25"/></filter><filter id="t" width="23.09" height="14.35" x="5" y="12.78" color-interpolation-filters="sRGB" filterUnits="userSpaceOnUse"><feFlood flood-opacity="0" result="BackgroundImageFix"/><feBlend in="SourceGraphic" in2="BackgroundImageFix" result="shape"/><feColorMatrix in="SourceAlpha" result="hardAlpha" values="0 0 0 0 0 0 0 0 0 0 0 0 0 0 0 0 0 0 127 0"/><feOffset dx=".15" dy=".15"/><feGaussianBlur stdDeviation=".5"/><feComposite in2="hardAlpha" k2="-1" k3="1" operator="arithmetic"/><feColorMatrix values="0 0 0 0 0.905882 0 0 0 0 0.968627 0 0 0 0 0.941176 0 0 0 1 0"/><feBlend in2="shape" result="effect1_innerShadow_28327_5496"/></filter><filter id="D" width="18.95" height="9.12" x="7" y="16.02" color-interpolation-filters="sRGB" filterUnits="userSpaceOnUse"><feFlood flood-opacity="0" result="BackgroundImageFix"/><feBlend in="SourceGraphic" in2="BackgroundImageFix" result="shape"/><feColorMatrix in="SourceAlpha" result="hardAlpha" values="0 0 0 0 0 0 0 0 0 0 0 0 0 0 0 0 0 0 127 0"/><feOffset dy=".15"/><feGaussianBlur stdDeviation=".25"/><feComposite in2="hardAlpha" k2="-1" k3="1" operator="arithmetic"/><feColorMatrix values="0 0 0 0 0.333333 0 0 0 0 0.635294 0 0 0 0 0.47451 0 0 0 1 0"/><feBlend in2="shape" result="effect1_innerShadow_28327_5496"/></filter><filter id="F" width="18.95" height="9.12" x="7" y="16.02" color-interpolation-filters="sRGB" filterUnits="userSpaceOnUse"><feFlood flood-opacity="0" result="BackgroundImageFix"/><feBlend in="SourceGraphic" in2="BackgroundImageFix" result="shape"/><feColorMatrix in="SourceAlpha" result="hardAlpha" values="0 0 0 0 0 0 0 0 0 0 0 0 0 0 0 0 0 0 127 0"/><feOffset dy=".15"/><feGaussianBlur stdDeviation=".25"/><feComposite in2="hardAlpha" k2="-1" k3="1" operator="arithmetic"/><feColorMatrix values="0 0 0 0 0.333333 0 0 0 0 0.635294 0 0 0 0 0.47451 0 0 0 1 0"/><feBlend in2="shape" result="effect1_innerShadow_28327_5496"/></filter><filter id="H" width="5.43" height="2.62" x="17.35" y="16.11" color-interpolation-filters="sRGB" filterUnits="userSpaceOnUse"><feFlood flood-opacity="0" result="BackgroundImageFix"/><feBlend in="SourceGraphic" in2="BackgroundImageFix" result="shape"/><feGaussianBlur result="effect1_foregroundBlur_28327_5496" stdDeviation=".13"/></filter><filter id="J" width="9.38" height="3.76" x="16.5" y="21.21" color-interpolation-filters="sRGB" filterUnits="userSpaceOnUse"><feFlood flood-opacity="0" result="BackgroundImageFix"/><feBlend in="SourceGraphic" in2="BackgroundImageFix" result="shape"/><feGaussianBlur result="effect1_foregroundBlur_28327_5496" stdDeviation=".13"/></filter><filter id="L" width="2.49" height="4.63" x="10.83" y="18.33" color-interpolation-filters="sRGB" filterUnits="userSpaceOnUse"><feFlood flood-opacity="0" result="BackgroundImageFix"/><feBlend in="SourceGraphic" in2="BackgroundImageFix" result="shape"/><feGaussianBlur result="effect1_foregroundBlur_28327_5496" stdDeviation=".13"/></filter><filter id="N" width="1.78" height="1.51" x="10.2" y="16.5" color-interpolation-filters="sRGB" filterUnits="userSpaceOnUse"><feFlood flood-opacity="0" result="BackgroundImageFix"/><feBlend in="SourceGraphic" in2="BackgroundImageFix" result="shape"/><feGaussianBlur result="effect1_foregroundBlur_28327_5496" stdDeviation=".13"/></filter><filter id="P" width="1.78" height="1.51" x="7.31" y="21.38" color-interpolation-filters="sRGB" filterUnits="userSpaceOnUse"><feFlood flood-opacity="0" result="BackgroundImageFix"/><feBlend in="SourceGraphic" in2="BackgroundImageFix" result="shape"/><feGaussianBlur result="effect1_foregroundBlur_28327_5496" stdDeviation=".13"/></filter></defs></svg>