<svg xmlns="http://www.w3.org/2000/svg" fill="none" viewBox="0 0 32 32"><path fill="url(#a)" d="M29.85 22.63 9.5 2.27l-.07.07c-3.07 2.9-6.47 6.12-7.14 11.02-.51 3.77.6 9.26 4.44 12.64a14.6 14.6 0 0 0 11.6 3.84c5.13-.47 8.52-3.94 11.53-7.2"/><path fill="url(#b)" d="M29 21.77 10.3 3.07C7.48 5.75 4.11 8.68 3.5 13.23c-.47 3.47.14 8.42 4 11.83s7.44 3.85 10.97 3.52c4.7-.44 7.74-4 10.53-6.81"/><path fill="url(#c)" d="m27.68 20.45-16-16L8.6 7.48a11.31 11.31 0 0 0 16 16z"/><path fill="url(#d)" d="M10.24 18.22a1.21 1.21 0 1 0 0-2.43 1.21 1.21 0 0 0 0 2.43"/><path fill="url(#e)" d="M16.42 16.66a1.21 1.21 0 1 0 0-2.43 1.21 1.21 0 0 0 0 2.43"/><path fill="url(#f)" d="M21.24 21.44a1.21 1.21 0 1 0 0-2.43 1.21 1.21 0 0 0 0 2.43"/><path fill="url(#g)" d="M14.79 23a1.21 1.21 0 1 0 0-2.42 1.21 1.21 0 0 0 0 2.42"/><path fill="url(#h)" d="M11.64 12a1.21 1.21 0 1 0 0-2.42 1.21 1.21 0 0 0 0 2.42"/><defs><radialGradient id="a" cx="0" cy="0" r="1" gradientTransform="rotate(-68.92 27.03 11.18)scale(25.3871 25.4238)" gradientUnits="userSpaceOnUse"><stop offset=".16" stop-color="#69963e"/><stop offset="1" stop-color="#85b83d"/></radialGradient><radialGradient id="d" cx="0" cy="0" r="1" gradientTransform="rotate(142.7 2.6 10.17)scale(1.83456 1.83459)" gradientUnits="userSpaceOnUse"><stop offset=".01" stop-color="#7b6d83"/><stop offset=".41" stop-color="#584d5d"/><stop offset=".7" stop-color="#4c305e"/><stop offset="1" stop-color="#1c1c1c"/></radialGradient><radialGradient id="e" cx="0" cy="0" r="1" gradientTransform="rotate(142.7 5.96 10.43)scale(1.83456 1.83459)" gradientUnits="userSpaceOnUse"><stop offset=".01" stop-color="#7b6d83"/><stop offset=".41" stop-color="#584d5d"/><stop offset=".7" stop-color="#4c305e"/><stop offset="1" stop-color="#1c1c1c"/></radialGradient><radialGradient id="f" cx="0" cy="0" r="1" gradientTransform="rotate(142.7 7.56 13.64)scale(1.83456 1.83459)" gradientUnits="userSpaceOnUse"><stop offset=".01" stop-color="#7b6d83"/><stop offset=".41" stop-color="#584d5d"/><stop offset=".7" stop-color="#4c305e"/><stop offset="1" stop-color="#1c1c1c"/></radialGradient><radialGradient id="g" cx="0" cy="0" r="1" gradientTransform="rotate(142.7 4.08 13.33)scale(1.83456 1.83459)" gradientUnits="userSpaceOnUse"><stop offset=".01" stop-color="#7b6d83"/><stop offset=".41" stop-color="#584d5d"/><stop offset=".7" stop-color="#4c305e"/><stop offset="1" stop-color="#1c1c1c"/></radialGradient><radialGradient id="h" cx="0" cy="0" r="1" gradientTransform="rotate(142.7 4.36 7.3)scale(1.83456 1.83459)" gradientUnits="userSpaceOnUse"><stop offset=".01" stop-color="#7b6d83"/><stop offset=".41" stop-color="#584d5d"/><stop offset=".7" stop-color="#4c305e"/><stop offset="1" stop-color="#1c1c1c"/></radialGradient><linearGradient id="b" x1="10" x2="20.25" y1="6.5" y2="29.44" gradientUnits="userSpaceOnUse"><stop stop-color="#efdbbe"/><stop offset="1" stop-color="#f2d6c7"/></linearGradient><linearGradient id="c" x1="7.1" x2="22.07" y1="10.36" y2="25.97" gradientUnits="userSpaceOnUse"><stop stop-color="#ff413c"/><stop offset=".46" stop-color="#ed1452"/><stop offset="1" stop-color="#d5275d"/></linearGradient></defs></svg>